<?xml version="1.0" encoding="UTF-8"?>
<svg version="1.1" xmlns="http://www.w3.org/2000/svg" width="1100" height="1100">
<path d="M0 0 C363 0 726 0 1100 0 C1100 363 1100 726 1100 1100 C737 1100 374 1100 0 1100 C0 737 0 374 0 0 Z " fill="#000000" transform="translate(0,0)"/>
<path d="M0 0 C7.26 0 14.52 0 22 0 C22 3.63 22 7.26 22 11 C36.52 11 51.04 11 66 11 C66 14.63 66 18.26 66 22 C73.26 22 80.52 22 88 22 C88 25.63 88 29.26 88 33 C95.26 33 102.52 33 110 33 C110 40.26 110 47.52 110 55 C120.89 55 131.78 55 143 55 C143 62.26 143 69.52 143 77 C146.63 77 150.26 77 154 77 C154 84.26 154 91.52 154 99 C157.63 99 161.26 99 165 99 C165 106.26 165 113.52 165 121 C168.63 121 172.26 121 176 121 C176 128.26 176 135.52 176 143 C179.63 143 183.26 143 187 143 C187 150.26 187 157.52 187 165 C190.63 165 194.26 165 198 165 C198 172.26 198 179.52 198 187 C201.63 187 205.26 187 209 187 C209 194.26 209 201.52 209 209 C212.63 209 216.26 209 220 209 C220 216.26 220 223.52 220 231 C223.63 231 227.26 231 231 231 C231 238.26 231 245.52 231 253 C234.63 253 238.26 253 242 253 C242 256.63 242 260.26 242 264 C234.74 264 227.48 264 220 264 C220 267.63 220 271.26 220 275 C223.63 275 227.26 275 231 275 C231 282.26 231 289.52 231 297 C234.63 297 238.26 297 242 297 C242 304.26 242 311.52 242 319 C238.37 319 234.74 319 231 319 C231 322.63 231 326.26 231 330 C234.63 330 238.26 330 242 330 C242 337.26 242 344.52 242 352 C245.63 352 249.26 352 253 352 C253 359.26 253 366.52 253 374 C249.37 374 245.74 374 242 374 C242 381.26 242 388.52 242 396 C245.63 396 249.26 396 253 396 C253 403.26 253 410.52 253 418 C256.63 418 260.26 418 264 418 C264 425.26 264 432.52 264 440 C260.37 440 256.74 440 253 440 C253 443.63 253 447.26 253 451 C256.63 451 260.26 451 264 451 C264 454.63 264 458.26 264 462 C260.37 462 256.74 462 253 462 C253 472.89 253 483.78 253 495 C249.37 495 245.74 495 242 495 C242 527.67 242 560.34 242 594 C245.63 594 249.26 594 253 594 C253 604.89 253 615.78 253 627 C256.63 627 260.26 627 264 627 C264 634.26 264 641.52 264 649 C267.63 649 271.26 649 275 649 C275 656.26 275 663.52 275 671 C278.63 671 282.26 671 286 671 C286 674.63 286 678.26 286 682 C289.63 682 293.26 682 297 682 C297 689.26 297 696.52 297 704 C300.63 704 304.26 704 308 704 C308 707.63 308 711.26 308 715 C304.37 715 300.74 715 297 715 C297 722.26 297 729.52 297 737 C300.63 737 304.26 737 308 737 C308 744.26 308 751.52 308 759 C311.63 759 315.26 759 319 759 C319 762.63 319 766.26 319 770 C315.37 770 311.74 770 308 770 C308 777.26 308 784.52 308 792 C311.63 792 315.26 792 319 792 C319 795.63 319 799.26 319 803 C315.37 803 311.74 803 308 803 C308 806.63 308 810.26 308 814 C300.74 814 293.48 814 286 814 C286 817.63 286 821.26 286 825 C278.74 825 271.48 825 264 825 C264 828.63 264 832.26 264 836 C256.74 836 249.48 836 242 836 C242 839.63 242 843.26 242 847 C234.74 847 227.48 847 220 847 C220 850.63 220 854.26 220 858 C212.74 858 205.48 858 198 858 C198 861.63 198 865.26 198 869 C190.74 869 183.48 869 176 869 C176 861.74 176 854.48 176 847 C165.11 847 154.22 847 143 847 C143 839.74 143 832.48 143 825 C139.37 825 135.74 825 132 825 C132 817.74 132 810.48 132 803 C128.37 803 124.74 803 121 803 C121 806.63 121 810.26 121 814 C117.37 814 113.74 814 110 814 C110 806.74 110 799.48 110 792 C106.37 792 102.74 792 99 792 C99 784.74 99 777.48 99 770 C95.37 770 91.74 770 88 770 C88 766.37 88 762.74 88 759 C80.74 759 73.48 759 66 759 C66 755.37 66 751.74 66 748 C62.37 748 58.74 748 55 748 C55 740.74 55 733.48 55 726 C51.37 726 47.74 726 44 726 C44 722.37 44 718.74 44 715 C36.74 715 29.48 715 22 715 C22 707.74 22 700.48 22 693 C18.37 693 14.74 693 11 693 C11 689.37 11 685.74 11 682 C3.74 682 -3.52 682 -11 682 C-11 678.37 -11 674.74 -11 671 C-14.63 671 -18.26 671 -22 671 C-22 663.74 -22 656.48 -22 649 C-29.26 649 -36.52 649 -44 649 C-44 645.37 -44 641.74 -44 638 C-47.63 638 -51.26 638 -55 638 C-55 630.74 -55 623.48 -55 616 C-58.63 616 -62.26 616 -66 616 C-66 612.37 -66 608.74 -66 605 C-73.26 605 -80.52 605 -88 605 C-88 597.74 -88 590.48 -88 583 C-91.63 583 -95.26 583 -99 583 C-99 575.74 -99 568.48 -99 561 C-102.63 561 -106.26 561 -110 561 C-110 557.37 -110 553.74 -110 550 C-113.63 550 -117.26 550 -121 550 C-121 553.63 -121 557.26 -121 561 C-124.63 561 -128.26 561 -132 561 C-132 553.74 -132 546.48 -132 539 C-135.63 539 -139.26 539 -143 539 C-143 531.74 -143 524.48 -143 517 C-150.26 517 -157.52 517 -165 517 C-165 513.37 -165 509.74 -165 506 C-168.63 506 -172.26 506 -176 506 C-176 498.74 -176 491.48 -176 484 C-179.63 484 -183.26 484 -187 484 C-187 480.37 -187 476.74 -187 473 C-190.63 473 -194.26 473 -198 473 C-198 476.63 -198 480.26 -198 484 C-201.63 484 -205.26 484 -209 484 C-209 476.74 -209 469.48 -209 462 C-212.63 462 -216.26 462 -220 462 C-220 454.74 -220 447.48 -220 440 C-223.63 440 -227.26 440 -231 440 C-231 432.74 -231 425.48 -231 418 C-234.63 418 -238.26 418 -242 418 C-242 410.74 -242 403.48 -242 396 C-245.63 396 -249.26 396 -253 396 C-253 388.74 -253 381.48 -253 374 C-256.63 374 -260.26 374 -264 374 C-264 366.74 -264 359.48 -264 352 C-267.63 352 -271.26 352 -275 352 C-275 344.74 -275 337.48 -275 330 C-278.63 330 -282.26 330 -286 330 C-286 322.74 -286 315.48 -286 308 C-289.63 308 -293.26 308 -297 308 C-297 300.74 -297 293.48 -297 286 C-300.63 286 -304.26 286 -308 286 C-308 278.74 -308 271.48 -308 264 C-304.37 264 -300.74 264 -297 264 C-297 256.74 -297 249.48 -297 242 C-300.63 242 -304.26 242 -308 242 C-308 238.37 -308 234.74 -308 231 C-304.37 231 -300.74 231 -297 231 C-297 223.74 -297 216.48 -297 209 C-293.37 209 -289.74 209 -286 209 C-286 194.48 -286 179.96 -286 165 C-282.37 165 -278.74 165 -275 165 C-275 157.74 -275 150.48 -275 143 C-271.37 143 -267.74 143 -264 143 C-264 139.37 -264 135.74 -264 132 C-256.74 132 -249.48 132 -242 132 C-242 128.37 -242 124.74 -242 121 C-238.37 121 -234.74 121 -231 121 C-231 117.37 -231 113.74 -231 110 C-234.63 110 -238.26 110 -242 110 C-242 106.37 -242 102.74 -242 99 C-234.74 99 -227.48 99 -220 99 C-220 95.37 -220 91.74 -220 88 C-212.74 88 -205.48 88 -198 88 C-198 84.37 -198 80.74 -198 77 C-190.74 77 -183.48 77 -176 77 C-176 73.37 -176 69.74 -176 66 C-168.74 66 -161.48 66 -154 66 C-154 62.37 -154 58.74 -154 55 C-146.74 55 -139.48 55 -132 55 C-132 51.37 -132 47.74 -132 44 C-124.74 44 -117.48 44 -110 44 C-110 40.37 -110 36.74 -110 33 C-102.74 33 -95.48 33 -88 33 C-88 29.37 -88 25.74 -88 22 C-80.74 22 -73.48 22 -66 22 C-66 18.37 -66 14.74 -66 11 C-55.11 11 -44.22 11 -33 11 C-33 14.63 -33 18.26 -33 22 C-29.37 22 -25.74 22 -22 22 C-22 18.37 -22 14.74 -22 11 C-14.74 11 -7.48 11 0 11 C0 7.37 0 3.74 0 0 Z " fill="#FFFFFF" transform="translate(319,154)"/>
<path d="M0 0 C32.67 0 65.34 0 99 0 C99 3.63 99 7.26 99 11 C109.89 11 120.78 11 132 11 C132 14.63 132 18.26 132 22 C139.26 22 146.52 22 154 22 C154 25.63 154 29.26 154 33 C161.26 33 168.52 33 176 33 C176 36.63 176 40.26 176 44 C179.63 44 183.26 44 187 44 C187 47.63 187 51.26 187 55 C194.26 55 201.52 55 209 55 C209 58.63 209 62.26 209 66 C212.63 66 216.26 66 220 66 C220 69.63 220 73.26 220 77 C223.63 77 227.26 77 231 77 C231 84.26 231 91.52 231 99 C234.63 99 238.26 99 242 99 C242 102.63 242 106.26 242 110 C245.63 110 249.26 110 253 110 C253 117.26 253 124.52 253 132 C256.63 132 260.26 132 264 132 C264 139.26 264 146.52 264 154 C267.63 154 271.26 154 275 154 C275 164.89 275 175.78 275 187 C278.63 187 282.26 187 286 187 C286 219.67 286 252.34 286 286 C282.37 286 278.74 286 275 286 C275 296.89 275 307.78 275 319 C271.37 319 267.74 319 264 319 C264 326.26 264 333.52 264 341 C260.37 341 256.74 341 253 341 C253 348.26 253 355.52 253 363 C249.37 363 245.74 363 242 363 C242 366.63 242 370.26 242 374 C238.37 374 234.74 374 231 374 C231 381.26 231 388.52 231 396 C227.37 396 223.74 396 220 396 C220 399.63 220 403.26 220 407 C216.37 407 212.74 407 209 407 C209 410.63 209 414.26 209 418 C201.74 418 194.48 418 187 418 C187 421.63 187 425.26 187 429 C183.37 429 179.74 429 176 429 C176 432.63 176 436.26 176 440 C168.74 440 161.48 440 154 440 C154 443.63 154 447.26 154 451 C146.74 451 139.48 451 132 451 C132 454.63 132 458.26 132 462 C121.11 462 110.22 462 99 462 C99 465.63 99 469.26 99 473 C66.33 473 33.66 473 0 473 C0 469.37 0 465.74 0 462 C-10.89 462 -21.78 462 -33 462 C-33 458.37 -33 454.74 -33 451 C-40.26 451 -47.52 451 -55 451 C-55 447.37 -55 443.74 -55 440 C-62.26 440 -69.52 440 -77 440 C-77 436.37 -77 432.74 -77 429 C-84.26 429 -91.52 429 -99 429 C-99 425.37 -99 421.74 -99 418 C-102.63 418 -106.26 418 -110 418 C-110 414.37 -110 410.74 -110 407 C-113.63 407 -117.26 407 -121 407 C-121 403.37 -121 399.74 -121 396 C-124.63 396 -128.26 396 -132 396 C-132 388.74 -132 381.48 -132 374 C-135.63 374 -139.26 374 -143 374 C-143 370.37 -143 366.74 -143 363 C-146.63 363 -150.26 363 -154 363 C-154 355.74 -154 348.48 -154 341 C-157.63 341 -161.26 341 -165 341 C-165 333.74 -165 326.48 -165 319 C-168.63 319 -172.26 319 -176 319 C-176 308.11 -176 297.22 -176 286 C-179.63 286 -183.26 286 -187 286 C-187 253.33 -187 220.66 -187 187 C-183.37 187 -179.74 187 -176 187 C-176 176.11 -176 165.22 -176 154 C-172.37 154 -168.74 154 -165 154 C-165 150.37 -165 146.74 -165 143 C-168.63 143 -172.26 143 -176 143 C-176 139.37 -176 135.74 -176 132 C-168.74 132 -161.48 132 -154 132 C-154 124.74 -154 117.48 -154 110 C-150.37 110 -146.74 110 -143 110 C-143 106.37 -143 102.74 -143 99 C-139.37 99 -135.74 99 -132 99 C-132 91.74 -132 84.48 -132 77 C-128.37 77 -124.74 77 -121 77 C-121 73.37 -121 69.74 -121 66 C-117.37 66 -113.74 66 -110 66 C-110 62.37 -110 58.74 -110 55 C-102.74 55 -95.48 55 -88 55 C-88 51.37 -88 47.74 -88 44 C-84.37 44 -80.74 44 -77 44 C-77 40.37 -77 36.74 -77 33 C-69.74 33 -62.48 33 -55 33 C-55 29.37 -55 25.74 -55 22 C-47.74 22 -40.48 22 -33 22 C-33 18.37 -33 14.74 -33 11 C-22.11 11 -11.22 11 0 11 C0 7.37 0 3.74 0 0 Z " fill="#920000" transform="translate(748,462)"/>
<path d="M0 0 C7.26 0 14.52 0 22 0 C22 3.63 22 7.26 22 11 C25.63 11 29.26 11 33 11 C33 7.37 33 3.74 33 0 C36.63 0 40.26 0 44 0 C44 3.63 44 7.26 44 11 C51.26 11 58.52 11 66 11 C66 14.63 66 18.26 66 22 C76.89 22 87.78 22 99 22 C99 29.26 99 36.52 99 44 C102.63 44 106.26 44 110 44 C110 51.26 110 58.52 110 66 C113.63 66 117.26 66 121 66 C121 69.63 121 73.26 121 77 C117.37 77 113.74 77 110 77 C110 84.26 110 91.52 110 99 C106.37 99 102.74 99 99 99 C99 109.89 99 120.78 99 132 C95.37 132 91.74 132 88 132 C88 139.26 88 146.52 88 154 C80.74 154 73.48 154 66 154 C66 157.63 66 161.26 66 165 C58.74 165 51.48 165 44 165 C44 168.63 44 172.26 44 176 C25.85 176 7.7 176 -11 176 C-11 172.37 -11 168.74 -11 165 C-18.26 165 -25.52 165 -33 165 C-33 161.37 -33 157.74 -33 154 C-40.26 154 -47.52 154 -55 154 C-55 146.74 -55 139.48 -55 132 C-58.63 132 -62.26 132 -66 132 C-66 124.74 -66 117.48 -66 110 C-69.63 110 -73.26 110 -77 110 C-77 106.37 -77 102.74 -77 99 C-73.37 99 -69.74 99 -66 99 C-66 91.74 -66 84.48 -66 77 C-62.37 77 -58.74 77 -55 77 C-55 62.48 -55 47.96 -55 33 C-51.37 33 -47.74 33 -44 33 C-44 29.37 -44 25.74 -44 22 C-36.74 22 -29.48 22 -22 22 C-22 18.37 -22 14.74 -22 11 C-14.74 11 -7.48 11 0 11 C0 7.37 0 3.74 0 0 Z " fill="#000000" transform="translate(264,330)"/>
<path d="M0 0 C61.71 0 123.42 0 187 0 C187 7.26 187 14.52 187 22 C183.37 22 179.74 22 176 22 C176 36.52 176 51.04 176 66 C172.37 66 168.74 66 165 66 C165 80.52 165 95.04 165 110 C161.37 110 157.74 110 154 110 C154 113.63 154 117.26 154 121 C132.22 121 110.44 121 88 121 C88 106.48 88 91.96 88 77 C91.63 77 95.26 77 99 77 C99 62.48 99 47.96 99 33 C91.74 33 84.48 33 77 33 C77 29.37 77 25.74 77 22 C73.37 22 69.74 22 66 22 C66 25.63 66 29.26 66 33 C62.37 33 58.74 33 55 33 C55 47.52 55 62.04 55 77 C51.37 77 47.74 77 44 77 C44 87.89 44 98.78 44 110 C40.37 110 36.74 110 33 110 C33 113.63 33 117.26 33 121 C14.85 121 -3.3 121 -22 121 C-22 102.85 -22 84.7 -22 66 C-18.37 66 -14.74 66 -11 66 C-11 51.48 -11 36.96 -11 22 C-7.37 22 -3.74 22 0 22 C0 14.74 0 7.48 0 0 Z " fill="#F2F2F2" transform="translate(759,660)"/>
<path d="M0 0 C25.41 0 50.82 0 77 0 C77 3.63 77 7.26 77 11 C73.37 11 69.74 11 66 11 C66 25.52 66 40.04 66 55 C62.37 55 58.74 55 55 55 C55 65.89 55 76.78 55 88 C51.37 88 47.74 88 44 88 C44 98.89 44 109.78 44 121 C22.22 121 0.44 121 -22 121 C-22 106.48 -22 91.96 -22 77 C-18.37 77 -14.74 77 -11 77 C-11 62.48 -11 47.96 -11 33 C-7.37 33 -3.74 33 0 33 C0 22.11 0 11.22 0 0 Z " fill="#F3F3F3" transform="translate(638,660)"/>
<path d="M0 0 C25.41 0 50.82 0 77 0 C77 3.63 77 7.26 77 11 C80.63 11 84.26 11 88 11 C88 14.63 88 18.26 88 22 C95.26 22 102.52 22 110 22 C110 14.74 110 7.48 110 0 C128.15 0 146.3 0 165 0 C165 14.52 165 29.04 165 44 C106.92 44 48.84 44 -11 44 C-11 33.11 -11 22.22 -11 11 C-7.37 11 -3.74 11 0 11 C0 7.37 0 3.74 0 0 Z " fill="#F2F2F2" transform="translate(781,594)"/>
<path d="M0 0 C18.15 0 36.3 0 55 0 C55 14.52 55 29.04 55 44 C33.22 44 11.44 44 -11 44 C-11 36.74 -11 29.48 -11 22 C-7.37 22 -3.74 22 0 22 C0 14.74 0 7.48 0 0 Z " fill="#F3F3F3" transform="translate(660,594)"/>
<path d="M0 0 C3.63 0 7.26 0 11 0 C11 3.63 11 7.26 11 11 C7.37 11 3.74 11 0 11 C0 7.37 0 3.74 0 0 Z " fill="#FFFFFF" transform="translate(671,946)"/>
<path d="M0 0 C3.63 0 7.26 0 11 0 C11 3.63 11 7.26 11 11 C7.37 11 3.74 11 0 11 C0 7.37 0 3.74 0 0 Z " fill="#FFFFFF" transform="translate(649,880)"/>
<path d="M0 0 C3.63 0 7.26 0 11 0 C11 3.63 11 7.26 11 11 C7.37 11 3.74 11 0 11 C0 7.37 0 3.74 0 0 Z " fill="#000000" transform="translate(572,594)"/>
</svg>
